<svg xmlns="http://www.w3.org/2000/svg" width="77" height="69" viewBox="0 0 77 69" fill="none"><path d="M40.6396 47.7681C40.6396 48.6332 40.1182 49.413 39.3193 49.744C38.5198 50.075 37.5999 49.8923 36.9881 49.2806C36.3764 48.6688 36.1937 47.749 36.5247 46.9494C36.8557 46.1505 37.6355 45.6291 38.5006 45.6291C39.6821 45.6291 40.6396 46.5866 40.6396 47.7681ZM0 42.7774V48.481C0.00127306 49.6154 0.452596 50.7027 1.25405 51.5048C2.05613 52.3063 3.14343 52.7576 4.27781 52.7589H72.722C73.8564 52.7576 74.9437 52.3063 75.7458 51.5048C76.5472 50.7027 76.9986 49.6154 76.9998 48.481V42.7774H0ZM34.4111 15.6686C34.1444 15.4012 33.7816 15.251 33.4035 15.251C33.0253 15.251 32.6625 15.4012 32.3951 15.6686L28.9359 19.1271C28.6686 19.3945 28.5183 19.7573 28.5183 20.1354C28.5183 20.5136 28.6686 20.8764 28.9359 21.1438L32.3951 24.6035C32.9521 25.1605 33.8548 25.1605 34.4118 24.6035C34.9682 24.0465 34.9682 23.1438 34.4118 22.5868L31.961 20.1354L34.4118 17.6846C34.6791 17.4172 34.8294 17.055 34.8294 16.6762C34.8294 16.2981 34.6791 15.9359 34.4111 15.6686ZM48.0636 19.1271L44.6044 15.6679V15.6685C44.0474 15.1115 43.1448 15.1115 42.5878 15.6685C42.0314 16.2249 42.0314 17.1282 42.5878 17.6846L45.0386 20.1353L42.5878 22.5868C42.0314 23.1438 42.0314 24.0464 42.5878 24.6034C43.1448 25.1604 44.0474 25.1604 44.6044 24.6034L48.0636 21.1438C48.331 20.8764 48.4812 20.5135 48.4812 20.1354C48.4812 19.7573 48.331 19.3945 48.0636 19.1271ZM40.7678 15.5993C40.4298 15.4306 40.0383 15.4026 39.6793 15.5223C39.3203 15.6419 39.0236 15.8991 38.8549 16.2371L35.5937 22.7594V22.76C35.2424 23.4641 35.5282 24.3196 36.2322 24.6716C36.9356 25.0236 37.7918 24.739 38.1444 24.035L41.4056 17.5128C41.575 17.1747 41.603 16.7826 41.4833 16.4242C41.3636 16.0652 41.1065 15.7686 40.7678 15.5993ZM76.9999 4.27781V39.9258H0.000162873V4.27781C0.00143594 3.14345 0.452759 2.05615 1.25421 1.25405C2.05629 0.452596 3.14359 0.00127111 4.27798 0H72.7222C73.8566 0.00127306 74.9439 0.452596 75.746 1.25405C76.5474 2.05613 76.9986 3.14343 76.9999 4.27781ZM54.1852 19.9629C54.1852 15.803 52.5326 11.8135 49.5911 8.87189C46.6495 5.93025 42.6601 4.27781 38.5 4.27781C34.3399 4.27781 30.3506 5.93042 27.409 8.87189C24.4673 11.8135 22.8149 15.8028 22.8149 19.9629C22.8149 24.123 24.4675 28.1124 27.409 31.054C30.3506 33.9956 34.3399 35.6481 38.5 35.6481C42.6588 35.6436 46.6456 33.9891 49.5859 31.0488C52.5262 28.1085 54.1806 24.1216 54.1852 19.9629ZM49.9074 59.8887H48.3179L47.794 55.611H29.2065L28.6826 59.8887H27.0931C25.5647 59.8887 24.1528 60.7042 23.3883 62.0276C22.6244 63.351 22.6244 64.982 23.3883 66.3054C24.1528 67.6288 25.5647 68.4443 27.0931 68.4443H49.9078C51.4362 68.4443 52.8482 67.6288 53.6126 66.3054C54.3765 64.9819 54.3765 63.351 53.6126 62.0276C52.8481 60.7042 51.4363 59.8887 49.9078 59.8887H49.9074Z" fill="#FD8598"></path></svg>