<svg xmlns="http://www.w3.org/2000/svg" id="a45f4202-b885-4975-a95b-aa68f9239ce3" data-name="Layer 1" width="18" height="17.8348" viewBox="0 0 18 17.8348"><defs><style>.a571b57c-ac1d-465d-b1fc-e908c4532d7d{fill-rule:evenodd;}</style></defs><path class="a571b57c-ac1d-465d-b1fc-e908c4532d7d" d="M5,0A5,5,0,0,0,0,5v7.8348a5,5,0,0,0,5,5h8a5,5,0,0,0,5-5V5a5,5,0,0,0-5-5Zm9.2209,4.9935a1.2485,1.2485,0,1,0-1.26-1.2485A1.2543,1.2543,0,0,0,14.2209,4.9935ZM12.24,8.9176A3.24,3.24,0,1,0,9,12.1278,3.2253,3.2253,0,0,0,12.24,8.9176ZM9,4.28a4.6372,4.6372,0,1,0,4.68,4.6371A4.6587,4.6587,0,0,0,9,4.28Z"></path></svg>