<svg xmlns="http://www.w3.org/2000/svg" width="34" height="30" viewBox="0 0 34 30" fill="none"><path d="M17.6958 20.7998C17.6958 21.1765 17.4688 21.5161 17.1209 21.6602C16.7728 21.8043 16.3723 21.7248 16.1059 21.4584C15.8395 21.192 15.7599 20.7915 15.9041 20.4433C16.0482 20.0955 16.3878 19.8685 16.7645 19.8685C17.2789 19.8685 17.6958 20.2854 17.6958 20.7998ZM0 18.6267V21.1103C0.000554334 21.6042 0.197076 22.0777 0.546054 22.4269C0.895308 22.7759 1.36876 22.9724 1.8627 22.973H31.6656C32.1596 22.9724 32.633 22.7759 32.9823 22.4269C33.3312 22.0777 33.5278 21.6042 33.5283 21.1103V18.6267H0ZM14.9838 6.82262C14.8676 6.7062 14.7096 6.64078 14.545 6.64078C14.3803 6.64078 14.2223 6.7062 14.1059 6.82262L12.5997 8.32859C12.4833 8.445 12.4178 8.603 12.4178 8.76765C12.4178 8.93229 12.4833 9.09029 12.5997 9.20671L14.1059 10.7132C14.3485 10.9557 14.7415 10.9557 14.984 10.7132C15.2263 10.4706 15.2263 10.0776 14.984 9.83505L13.9169 8.76761L14.984 7.70045C15.1005 7.58404 15.1659 7.42632 15.1659 7.26139C15.1659 7.09675 15.1005 6.93903 14.9838 6.82262ZM20.9285 8.32859L19.4223 6.82233V6.82261C19.1797 6.58007 18.7867 6.58007 18.5442 6.82261C18.3019 7.06487 18.3019 7.45819 18.5442 7.70045L19.6113 8.7676L18.5442 9.83504C18.3019 10.0776 18.3019 10.4706 18.5442 10.7132C18.7867 10.9557 19.1797 10.9557 19.4223 10.7132L20.9285 9.2067C21.0449 9.09028 21.1104 8.93229 21.1104 8.76764C21.1104 8.60299 21.0449 8.445 20.9285 8.32859ZM17.7517 6.79246C17.6045 6.719 17.434 6.70681 17.2777 6.75892C17.1214 6.81103 16.9922 6.92301 16.9187 7.0702L15.4987 9.9102V9.91048C15.3457 10.217 15.4702 10.5896 15.7767 10.7428C16.083 10.8961 16.4558 10.7722 16.6094 10.4656L18.0294 7.62564C18.1031 7.47846 18.1153 7.30771 18.0632 7.15166C18.0111 6.99533 17.8991 6.86619 17.7517 6.79246ZM33.5283 1.8627V17.385H7.09203e-05V1.8627C0.000625254 1.36876 0.197147 0.895315 0.546124 0.546053C0.895379 0.197076 1.36883 0.000553483 1.86277 0H31.6657C32.1596 0.000554334 32.6331 0.197076 32.9823 0.546053C33.3313 0.895308 33.5278 1.36876 33.5283 1.8627ZM23.594 8.69254C23.594 6.88116 22.8744 5.144 21.5936 3.86312C20.3127 2.58223 18.5757 1.8627 16.7642 1.8627C14.9528 1.8627 13.2157 2.5823 11.9348 3.86312C10.6539 5.144 9.93437 6.88109 9.93437 8.69254C9.93437 10.504 10.654 12.2411 11.9348 13.522C13.2157 14.8028 14.9528 15.5224 16.7642 15.5224C18.5751 15.5204 20.311 14.8 21.5914 13.5197C22.8717 12.2394 23.5921 10.5033 23.594 8.69254ZM21.7314 26.0776H21.0392L20.8111 24.2149H12.7175L12.4894 26.0776H11.7972C11.1317 26.0776 10.5169 26.4326 10.1841 27.0089C9.85143 27.5852 9.85143 28.2953 10.1841 28.8716C10.517 29.4479 11.1317 29.8029 11.7972 29.8029H21.7315C22.3971 29.8029 23.0119 29.4479 23.3447 28.8716C23.6774 28.2953 23.6774 27.5852 23.3447 27.0089C23.0118 26.4326 22.3971 26.0776 21.7315 26.0776H21.7314Z" fill="#FFE3F1"></path></svg>